<svg id="visual" viewBox="0 0 960 540" width="960" height="540" xmlns="http://www.w3.org/2000/svg" xmlns:xlink="http://www.w3.org/1999/xlink" version="1.1"><path d="M0 120L14.5 117.3C29 114.7 58 109.3 87.2 104.8C116.3 100.3 145.7 96.7 174.8 101.2C204 105.7 233 118.3 262 121.8C291 125.3 320 119.7 349 114.2C378 108.7 407 103.3 436.2 96.2C465.3 89 494.7 80 523.8 71C553 62 582 53 611 63.8C640 74.7 669 105.3 698 116.2C727 127 756 118 785.2 103.7C814.3 89.3 843.7 69.7 872.8 67.8C902 66 931 82 945.5 90L960 98L960 0L945.5 0C931 0 902 0 872.8 0C843.7 0 814.3 0 785.2 0C756 0 727 0 698 0C669 0 640 0 611 0C582 0 553 0 523.8 0C494.7 0 465.3 0 436.2 0C407 0 378 0 349 0C320 0 291 0 262 0C233 0 204 0 174.8 0C145.7 0 116.3 0 87.2 0C58 0 29 0 14.5 0L0 0Z" fill="#5d92ff"></path><path d="M0 228L14.5 228C29 228 58 228 87.2 239.7C116.3 251.3 145.7 274.7 174.8 281.8C204 289 233 280 262 275.5C291 271 320 271 349 277.3C378 283.7 407 296.3 436.2 298.2C465.3 300 494.7 291 523.8 278.3C553 265.7 582 249.3 611 243.8C640 238.3 669 243.7 698 252.7C727 261.7 756 274.3 785.2 260.8C814.3 247.3 843.7 207.7 872.8 190.7C902 173.7 931 179.3 945.5 182.2L960 185L960 96L945.5 88C931 80 902 64 872.8 65.8C843.7 67.7 814.3 87.3 785.2 101.7C756 116 727 125 698 114.2C669 103.3 640 72.7 611 61.8C582 51 553 60 523.8 69C494.7 78 465.3 87 436.2 94.2C407 101.3 378 106.7 349 112.2C320 117.7 291 123.3 262 119.8C233 116.3 204 103.7 174.8 99.2C145.7 94.7 116.3 98.3 87.2 102.8C58 107.3 29 112.7 14.5 115.3L0 118Z" fill="#3b7bfb"></path><path d="M0 298L14.5 300.7C29 303.3 58 308.7 87.2 315C116.3 321.3 145.7 328.7 174.8 335C204 341.3 233 346.7 262 353.8C291 361 320 370 349 370.8C378 371.7 407 364.3 436.2 367C465.3 369.7 494.7 382.3 523.8 379.7C553 377 582 359 611 343.7C640 328.3 669 315.7 698 316.7C727 317.7 756 332.3 785.2 322.5C814.3 312.7 843.7 278.3 872.8 268.3C902 258.3 931 272.7 945.5 279.8L960 287L960 183L945.5 180.2C931 177.3 902 171.7 872.8 188.7C843.7 205.7 814.3 245.3 785.2 258.8C756 272.3 727 259.7 698 250.7C669 241.7 640 236.3 611 241.8C582 247.3 553 263.7 523.8 276.3C494.7 289 465.3 298 436.2 296.2C407 294.3 378 281.7 349 275.3C320 269 291 269 262 273.5C233 278 204 287 174.8 279.8C145.7 272.7 116.3 249.3 87.2 237.7C58 226 29 226 14.5 226L0 226Z" fill="#0163f6"></path><path d="M0 357L14.5 358C29 359 58 361 87.2 365.5C116.3 370 145.7 377 174.8 389.5C204 402 233 420 262 433.5C291 447 320 456 349 454.3C378 452.7 407 440.3 436.2 437.7C465.3 435 494.7 442 523.8 438.3C553 434.7 582 420.3 611 409.5C640 398.7 669 391.3 698 391.3C727 391.3 756 398.7 785.2 381.7C814.3 364.7 843.7 323.3 872.8 310.7C902 298 931 314 945.5 322L960 330L960 285L945.5 277.8C931 270.7 902 256.3 872.8 266.3C843.7 276.3 814.3 310.7 785.2 320.5C756 330.3 727 315.7 698 314.7C669 313.7 640 326.3 611 341.7C582 357 553 375 523.8 377.7C494.7 380.3 465.3 367.7 436.2 365C407 362.3 378 369.7 349 368.8C320 368 291 359 262 351.8C233 344.7 204 339.3 174.8 333C145.7 326.7 116.3 319.3 87.2 313C58 306.7 29 301.3 14.5 298.7L0 296Z" fill="#0056d5"></path><path d="M0 541L14.5 541C29 541 58 541 87.2 541C116.3 541 145.7 541 174.8 541C204 541 233 541 262 541C291 541 320 541 349 541C378 541 407 541 436.2 541C465.3 541 494.7 541 523.8 541C553 541 582 541 611 541C640 541 669 541 698 541C727 541 756 541 785.2 541C814.3 541 843.7 541 872.8 541C902 541 931 541 945.5 541L960 541L960 328L945.5 320C931 312 902 296 872.8 308.7C843.7 321.3 814.3 362.7 785.2 379.7C756 396.7 727 389.3 698 389.3C669 389.3 640 396.7 611 407.5C582 418.3 553 432.7 523.8 436.3C494.7 440 465.3 433 436.2 435.7C407 438.3 378 450.7 349 452.3C320 454 291 445 262 431.5C233 418 204 400 174.8 387.5C145.7 375 116.3 368 87.2 363.5C58 359 29 357 14.5 356L0 355Z" fill="#004ab5"></path></svg>